<svg xmlns="http://www.w3.org/2000/svg" width="369" height="369" viewBox="0 0 369 369"><defs><style>.cls-1{fill:#bbd5dd;}.cls-2{fill:#4c874b;}.cls-3{fill:#58945b;}.cls-4{fill:#fff9ca;}.cls-5{fill:#a55035;}.cls-6{fill:#b9613f;}.cls-7{fill:#964930;}.cls-8{fill:#b45c3c;}.cls-9{fill:#b96c46;}</style></defs><g id="Layer_8" data-name="Layer 8"><circle class="cls-1" cx="184" cy="184" r="181"/></g><g id="Layer_6" data-name="Layer 6"><ellipse class="cls-2" cx="184.45" cy="133.04" rx="71.19" ry="53.62"/><ellipse class="cls-2" cx="184.45" cy="133.04" rx="71.19" ry="53.62"/><ellipse class="cls-2" cx="184.45" cy="133.04" rx="58.53" ry="53.62"/><ellipse class="cls-3" cx="184.45" cy="134.05" rx="57.48" ry="53.62"/><path class="cls-2" d="M182.81,80.43s-37.23,11.13-36.52,42.49,14.88,0,14.88,0S153.23,108.76,182.81,80.43Z"/><path class="cls-2" d="M207.8,123.3s8-14.29-21.77-42.87c0,0,37.44,11.23,36.73,42.87"/><path class="cls-2" d="M184.45,79.42s-14.09,31.36-8.9,43.5,20.44,0,20.44,0S193.41,93.58,184.45,79.42Z"/><path class="cls-4" d="M107.68,120.28c4.19.5,10-3.89,10-3.89v0s2.93-3.34.2-12.47a18.85,18.85,0,0,0-1,10.06c-1-1.8-3.12-4.43-7.94-7.33a18.78,18.78,0,0,0,6.76,8.71C112.46,116,107.68,120.28,107.68,120.28Z"/><path class="cls-4" d="M124.59,95.89c3.79,1.78,10.8-.54,10.8-.54a.18.18,0,0,1,0,0v0s3.9-2.24,4.42-11.73a19.21,19.21,0,0,0-4.37,9.2c-.31-2-1.45-5.17-5-9.42a18.25,18.25,0,0,0,3.43,10.35C130.56,93.33,124.59,95.89,124.59,95.89Z"/><path class="cls-4" d="M152.38,78.91c2.68,3.12,10.07,3.77,10.07,3.77l0,0v0s4.53-.5,9.08-9a20.2,20.2,0,0,0-7.94,6.66c.58-1.95.9-5.28-.53-10.56,0,0-2.6,5.33-1.32,10.79C158.92,78.94,152.38,78.91,152.38,78.91Z"/><path class="cls-4" d="M216.9,78.91c-2.69,3.12-10.07,3.77-10.07,3.77a.12.12,0,0,1,0,0v0s-4.52-.5-9.07-9a20.2,20.2,0,0,1,7.93,6.66c-.58-1.95-.9-5.28.53-10.56,0,0,2.6,5.33,1.32,10.79C210.36,78.94,216.9,78.91,216.9,78.91Z"/><path class="cls-4" d="M242.44,92.37c-3.4,2.39-10.73,1.28-10.73,1.28l0-.05v0s-4.25-1.56-6.49-10.82a19.6,19.6,0,0,1,6,8.33c-.06-2,.49-5.33,3.23-10.11a18.1,18.1,0,0,1-1.5,10.77C236.1,90.86,242.44,92.37,242.44,92.37Z"/><path class="cls-4" d="M260.2,113.47c-3.87,1.6-10.76-1-10.76-1a.18.18,0,0,0,0-.05v0s-3.79-2.42-3.83-11.93a19.21,19.21,0,0,1,3.9,9.4c.41-2,1.71-5.1,5.49-9.17a18.35,18.35,0,0,1-4,10.18C254.36,110.64,260.2,113.47,260.2,113.47Z"/><path class="cls-4" d="M161.35,115l.17-.11a7.66,7.66,0,0,0,1.95.93h0a12.45,12.45,0,0,0,6.69,1.46,18.52,18.52,0,0,0-7.83-3c1.73-1.23,4.05-3.28,4.81-5.77a17.89,17.89,0,0,0-5.84,5.35A16.53,16.53,0,0,0,156,107a17.15,17.15,0,0,0,4.09,6.73h0s.21.2.57.49a17.48,17.48,0,0,0-7.91,4.87s.43-.1,1.1-.31l-.07.08S158.61,117.79,161.35,115Z"/><path class="cls-4" d="M171.4,94.72l.16-.11a7.9,7.9,0,0,0,2,.93h0a12.41,12.41,0,0,0,6.7,1.45,18.66,18.66,0,0,0-7.83-3c1.72-1.23,4-3.28,4.8-5.77a17.91,17.91,0,0,0-5.83,5.35,16.61,16.61,0,0,0-5.31-6.84,17.15,17.15,0,0,0,4.09,6.73h0s.21.2.57.48a17.56,17.56,0,0,0-7.91,4.88s.43-.1,1.09-.31l-.06.08S168.66,97.52,171.4,94.72Z"/><path class="cls-4" d="M200.1,95.6l.15-.12a8,8,0,0,0,2.05.73h0a12.48,12.48,0,0,0,6.82.79A18.72,18.72,0,0,0,201,94.83c1.58-1.4,3.68-3.67,4.16-6.22a17.71,17.71,0,0,0-5.23,5.9,16.77,16.77,0,0,0-6-6.28,17.38,17.38,0,0,0,4.8,6.29h0s.23.18.61.43a17.28,17.28,0,0,0-7.34,5.63s.42-.14,1.06-.41l-.06.07S197.68,98.66,200.1,95.6Z"/><path class="cls-4" d="M208.74,116.14l.17-.09a7.79,7.79,0,0,0,1.82,1h0a12,12,0,0,0,6.34,1.64,17.68,17.68,0,0,0-7.35-3.1c1.71-1.09,4-2.93,4.89-5.24a17.32,17.32,0,0,0-5.86,4.81,15.38,15.38,0,0,0-4.74-6.66,15.78,15.78,0,0,0,3.58,6.5h0s.19.2.52.48a17.07,17.07,0,0,0-7.82,4.28s.42-.08,1.07-.25l-.07.07S206,118.67,208.74,116.14Z"/><path class="cls-5" d="M106.55,169.46s-7,102.19,9.87,110.28,118.12,21.25,139.21-2c0,0,10.55-32.38,6.33-117.36Z"/><path class="cls-6" d="M141.73,285.81c-.68.15-4.33-.57-11.6-2-3.77-.75-6.82-1.39-8.73-1.8a13,13,0,0,1-4.5-1.24C105.07,275,107,253,104.52,209.16c-.69-12.45-3.35-62.8,6.52-72.11a7.08,7.08,0,0,1,1.81-1.23c8-3.91,18.86,4,24.07,9.23a15.46,15.46,0,0,1,1.09,1.2c11.66,14.14,10.14,74.73,10,78.8C147.15,256,149.29,284.2,141.73,285.81Z"/><path class="cls-7" d="M263,224.1c-.82,14.85-1,8.67-2.11,25.29-.66,10.3-1.6,26.19-7.39,30.35-.48.35-.88.53-3.16,2a39.8,39.8,0,0,1-6.33,3,56.54,56.54,0,0,1-6.33,2,25.21,25.21,0,0,1-4.21,1c-7.71-.52-7.39-59.69-7.39-59.69,0-59.35.85-70.42,9.5-74.86,7.6-3.91,19.09-1.57,24.25,4,2.1,2.29,2.32,4.21,3.17,27.32C263.51,198,264.2,202.46,263,224.1Z"/><rect class="cls-8" x="90.05" y="122.92" width="189.84" height="46.54" rx="5.28"/><rect class="cls-9" x="89" y="122.92" width="32.69" height="46.54" rx="5.08"/><rect class="cls-9" x="94.27" y="122.92" width="164.52" height="6.07"/><rect class="cls-5" x="247.2" y="122.92" width="32.69" height="46.54" rx="5.08"/></g></svg>