<svg xmlns="http://www.w3.org/2000/svg" width="1046" height="847" viewBox="0 0 1046 847"><defs><style>.cls-1{fill:#f5e8b3;}.cls-2{fill:#4c874b;}.cls-3{fill:#6db239;}.cls-4{fill:#57a22d;}.cls-5{fill:#5ba24b;}.cls-6{fill:#56934b;}.cls-7{fill:#5aac3b;}.cls-8{fill:#58945b;}.cls-9{fill:#e4d7be;}.cls-10{fill:#a55035;}.cls-11{fill:#b9613f;}.cls-12{fill:#964930;}.cls-13{fill:#b45c3c;}.cls-14{fill:#b96c46;}.cls-15{fill:#aa87df;}.cls-16{fill:#bd96ff;}.cls-17{fill:#8673ce;}.cls-18{fill:#fffba4;}.cls-19{fill:#357a32;}.cls-20{fill:#408444;}.cls-21{fill:#4e8c44;}</style></defs><g id="Layer_7" data-name="Layer 7"><ellipse class="cls-1" cx="518" cy="402" rx="423" ry="346"/><path class="cls-2" d="M271.64,207.53,258.13,271s32.12,59.83,29.5,12.92S271.64,207.53,271.64,207.53Z"/><path class="cls-2" d="M285.71,305.85s20.46-8.7,33.08-29.76-.28,131.47-36.3,64.69S285.71,305.85,285.71,305.85Z"/><path class="cls-2" d="M246.23,285.39s-16.57-8.58-23.73-41.3C222.5,244.09,227.61,360.61,246.23,285.39Z"/><path class="cls-3" d="M245.56,231.52s.17-13,6.38,4.84,14.65,39.33,21.57,52.5-11.49,96.71-36.9,32.23C236.61,321.09,235.64,292.94,245.56,231.52Z"/><path class="cls-4" d="M276.09,197s-9.66,10.78-4.38,42.78S259,329,251.38,338.5s22.68,74.58,36.05,26.51S302.7,237.47,276.09,197Z"/><path class="cls-5" d="M225.53,246.07s-2.2,46.72,23.57,76.83,49.33,62.06,35.1,84.19-66.9,28.82-74-32.08S222.41,214.7,225.53,246.07Z"/><path class="cls-6" d="M322.92,263S357.55,338.41,300,402.75s-48.87-54.29-.06-69c0,0,15.23-1.63,16.73-56.54C316.67,277.21,316.73,245.59,322.92,263Z"/><path class="cls-6" d="M181,345.55s-12,56.88,29.45,77.27,13.71-34.42-10.5-66.33S182.6,327.82,181,345.55Z"/><path class="cls-7" d="M290.56,400.66s27.28-44.5,63-61.78c0,0,10.77-7.67,4.51,11.36S341.92,414.58,309.3,412s-18.74-11.32-18.74-11.32"/><ellipse class="cls-2" cx="779.5" cy="410" rx="67.5" ry="53"/><ellipse class="cls-2" cx="779.5" cy="410" rx="67.5" ry="53"/><ellipse class="cls-2" cx="779.5" cy="410" rx="55.5" ry="53"/><ellipse class="cls-8" cx="779.5" cy="411" rx="54.5" ry="53"/><path class="cls-2" d="M778,358s-35.3,11-34.63,42,14.11,0,14.11,0S749.9,386,778,358Z"/><path class="cls-2" d="M801.64,400.37S809.21,386.25,781,358c0,0,35.5,11.1,34.82,42.37"/><path class="cls-2" d="M779.5,357s-13.36,31-8.43,43,19.38,0,19.38,0S788,371,779.5,357Z"/><path class="cls-9" d="M706.71,397.38c4,.5,9.51-3.83,9.51-3.83v0s2.78-3.31.19-12.34a19.36,19.36,0,0,0-.95,10c-.93-1.79-3-4.39-7.53-7.26a18.58,18.58,0,0,0,6.41,8.62C711.24,393.15,706.71,397.38,706.71,397.38Z"/><path class="cls-9" d="M722.75,373.28c3.59,1.76,10.23-.54,10.23-.54a.12.12,0,0,0,0-.05v0s3.7-2.22,4.2-11.6a19.28,19.28,0,0,0-4.15,9.1c-.29-2-1.37-5.11-4.76-9.31a18.62,18.62,0,0,0,3.26,10.23C728.41,370.75,722.75,373.28,722.75,373.28Z"/><path class="cls-9" d="M749.09,356.49c2.55,3.09,9.55,3.74,9.55,3.74a.12.12,0,0,1,0,0v0s4.29-.5,8.6-8.84a19.3,19.3,0,0,0-7.53,6.58c.56-1.93.86-5.22-.5-10.44A18.65,18.65,0,0,0,758,358.17C755.3,356.53,749.09,356.49,749.09,356.49Z"/><path class="cls-9" d="M810.27,356.49c-2.55,3.09-9.55,3.74-9.55,3.74l0,0v0s-4.29-.5-8.61-8.84a19.3,19.3,0,0,1,7.53,6.58c-.55-1.93-.85-5.22.5-10.44a18.56,18.56,0,0,1,1.25,10.66C804.07,356.53,810.27,356.49,810.27,356.49Z"/><path class="cls-9" d="M834.49,369.8c-3.23,2.36-10.17,1.26-10.17,1.26l0,0v0s-4-1.54-6.15-10.69a19.33,19.33,0,0,1,5.66,8.24c-.06-2,.47-5.28,3.07-10a18.54,18.54,0,0,1-1.43,10.64C828.48,368.3,834.49,369.8,834.49,369.8Z"/><path class="cls-9" d="M851.33,390.66c-3.67,1.58-10.2-1-10.2-1a.12.12,0,0,1,0-.05v0s-3.59-2.39-3.62-11.79a19.36,19.36,0,0,1,3.7,9.29c.38-2,1.62-5,5.2-9.07,0,0-.21,5.82-3.75,10.06C845.79,387.86,851.33,390.66,851.33,390.66Z"/><path class="cls-9" d="M757.6,392.15l.16-.11a7.11,7.11,0,0,0,1.85.92h0a11.41,11.41,0,0,0,6.35,1.44,17.26,17.26,0,0,0-7.43-2.93c1.64-1.22,3.84-3.24,4.56-5.71a17.2,17.2,0,0,0-5.54,5.29,16.3,16.3,0,0,0-5-6.76,17,17,0,0,0,3.88,6.65h0s.2.2.54.48a16.53,16.53,0,0,0-7.5,4.82s.41-.1,1-.3l-.07.07S755,394.92,757.6,392.15Z"/><path class="cls-9" d="M767.13,372.13l.16-.11a7.43,7.43,0,0,0,1.85.92h0a11.43,11.43,0,0,0,6.35,1.44,17.18,17.18,0,0,0-7.42-2.93c1.63-1.22,3.84-3.24,4.55-5.7A17.23,17.23,0,0,0,767.1,371a16.36,16.36,0,0,0-5-6.77,17.23,17.23,0,0,0,3.88,6.66l0,0s.2.21.53.49a16.43,16.43,0,0,0-7.49,4.81s.4-.09,1-.3l-.06.07S764.53,374.9,767.13,372.13Z"/><path class="cls-9" d="M794.34,373l.15-.13a7.24,7.24,0,0,0,1.93.73h0a11.43,11.43,0,0,0,6.46.78,17.17,17.17,0,0,0-7.68-2.15c1.5-1.38,3.48-3.62,3.94-6.15a17.29,17.29,0,0,0-5,5.84,16.3,16.3,0,0,0-5.7-6.21,17.06,17.06,0,0,0,4.54,6.22h0s.22.18.59.42a16.58,16.58,0,0,0-7,5.56s.4-.14,1-.4l-.06.07S792,376,794.34,373Z"/><path class="cls-9" d="M802.54,393.3l.16-.1a6.78,6.78,0,0,0,1.73.94h0a11.14,11.14,0,0,0,6,1.62,16.53,16.53,0,0,0-7-3.07c1.63-1.08,3.83-2.89,4.64-5.18a16.72,16.72,0,0,0-5.56,4.75,15.19,15.19,0,0,0-4.49-6.57,15.89,15.89,0,0,0,3.39,6.42h0a6.19,6.19,0,0,0,.49.47,16.06,16.06,0,0,0-7.41,4.23s.39-.07,1-.24l-.06.06S799.92,395.8,802.54,393.3Z"/></g><g id="Layer_6" data-name="Layer 6"><path class="cls-10" d="M189.64,450S183,551,199,559s112,21,132-2c0,0,10-32,6-116Z"/><path class="cls-11" d="M223,565c-.65.14-4.11-.57-11-2-3.57-.74-6.47-1.37-8.28-1.78a11.89,11.89,0,0,1-4.26-1.22c-11.22-5.67-9.44-27.42-11.74-70.77-.66-12.3-3.18-62.07,6.18-71.27a6.58,6.58,0,0,1,1.72-1.21c7.57-3.86,17.88,3.91,22.82,9.12.31.33.66.71,1,1.18,11.06,14,9.61,73.87,9.5,77.9C228.13,535.48,230.16,563.41,223,565Z"/><path class="cls-12" d="M338,504c-.77,14.68-1,8.57-2,25-.63,10.18-1.52,25.89-7,30-.46.35-.84.52-3,2a37.36,37.36,0,0,1-6,3,53.75,53.75,0,0,1-6,2,24.52,24.52,0,0,1-4,1c-7.31-.52-7-59-7-59,0-58.66.8-69.61,9-74,7.21-3.86,18.11-1.55,23,4,2,2.26,2.19,4.16,3,27C338.47,478.23,339.13,482.61,338,504Z"/><rect class="cls-13" x="174" y="404" width="180" height="46" rx="5.28"/><rect class="cls-14" x="173" y="404" width="31" height="46" rx="5.08"/><rect class="cls-14" x="178" y="404" width="156" height="6"/><rect class="cls-10" x="323" y="404" width="31" height="46" rx="5.08"/><path class="cls-10" d="M452.64,448S446,549,462,557s112,21,132-2c0,0,10-32,6-116Z"/><path class="cls-11" d="M486,563c-.65.14-4.11-.57-11-2-3.57-.74-6.47-1.37-8.28-1.78a11.89,11.89,0,0,1-4.26-1.22c-11.22-5.67-9.44-27.42-11.74-70.77-.66-12.3-3.18-62.07,6.18-71.27a6.58,6.58,0,0,1,1.72-1.21c7.57-3.86,17.88,3.91,22.82,9.12.31.33.66.71,1,1.18,11.06,14,9.61,73.87,9.5,77.9C491.13,533.48,493.16,561.41,486,563Z"/><path class="cls-12" d="M601,502c-.77,14.68-1,8.57-2,25-.63,10.18-1.52,25.89-7,30-.46.35-.84.52-3,2a37.36,37.36,0,0,1-6,3,53.75,53.75,0,0,1-6,2,24.52,24.52,0,0,1-4,1c-7.31-.52-7-59-7-59,0-58.66.8-69.61,9-74,7.21-3.86,18.11-1.55,23,4,2,2.26,2.19,4.16,3,27C601.47,476.23,602.13,480.61,601,502Z"/><rect class="cls-13" x="437" y="402" width="180" height="46" rx="5.28"/><rect class="cls-14" x="436" y="402" width="31" height="46" rx="5.08"/><rect class="cls-14" x="441" y="402" width="156" height="6"/><rect class="cls-10" x="586" y="402" width="31" height="46" rx="5.08"/><path class="cls-10" d="M705.64,446S699,547,715,555s112,21,132-2c0,0,10-32,6-116Z"/><path class="cls-11" d="M739,561c-.65.14-4.11-.57-11-2-3.57-.74-6.47-1.37-8.28-1.78a11.89,11.89,0,0,1-4.26-1.22c-11.22-5.67-9.44-27.42-11.74-70.77-.66-12.3-3.18-62.07,6.18-71.27a6.58,6.58,0,0,1,1.72-1.21c7.57-3.86,17.88,3.91,22.82,9.12.31.33.66.71,1,1.18,11.06,14,9.61,73.87,9.5,77.9C744.13,531.48,746.16,559.41,739,561Z"/><path class="cls-12" d="M854,500c-.77,14.68-1,8.57-2,25-.63,10.18-1.52,25.89-7,30-.46.35-.84.52-3,2a37.36,37.36,0,0,1-6,3,53.75,53.75,0,0,1-6,2,24.52,24.52,0,0,1-4,1c-7.31-.52-7-59-7-59,0-58.66.8-69.61,9-74,7.21-3.86,18.11-1.55,23,4,2,2.26,2.19,4.16,3,27C854.47,474.23,855.13,478.61,854,500Z"/><rect class="cls-13" x="690" y="400" width="180" height="46" rx="5.28"/><rect class="cls-14" x="689" y="400" width="31" height="46" rx="5.08"/><rect class="cls-14" x="694" y="400" width="156" height="6"/><rect class="cls-10" x="839" y="400" width="31" height="46" rx="5.08"/></g><g id="Layer_2" data-name="Layer 2"><path class="cls-15" d="M423.84,114.1c.19-.55,2.07-8.75,9.62-8.06s14.9-.7,8.2,5.62-9.29,7-11.93,7.24S422.7,117.44,423.84,114.1Z"/><path class="cls-15" d="M447.2,131.36c-.46-.3-7.58-3.87-4.91-10.74s3.34-14,7.42-6.37,4.05,10.2,3.53,12.69S450,133.16,447.2,131.36Z"/><path class="cls-15" d="M441.45,90s3.89-10.26,10.69-9,12.82-2.44,17.19,7.62-1.05,25.49-12,22.37S437.08,108.59,441.45,90Z"/><path class="cls-16" d="M446.55,107.4s5.69-14.86-.59-18.16-12.56-6.61-15.36-4.63-7.42,11.65-1.65,17S445.79,109.88,446.55,107.4Z"/><path class="cls-16" d="M475.55,112s-9.79-15.53-16.07-12.46-12.57,6.16-12.37,10,6.06,14.74,13.83,13.56S477.28,114.38,475.55,112Z"/><path class="cls-17" d="M454.51,106.88a15.64,15.64,0,0,1-7,1.08l-.11-.34c.93-.55,2.13-1.94,3.43-5.13,0,0,.87-3.9-2.76,0a10.31,10.31,0,0,0-2.61,3.9c-.66-1.95-.41-5.32-.61-6.66-.24-1.65-2.37,2.5-3.75,5.14-.62,1.18.19,2,1.28,2.63a4.6,4.6,0,0,0-2.84,2.42c-.86,2.57,5.56,7.68,7.84,5.43,1.08-1.06,1.07-3,.75-4.84l.16.1c2.82,1.84,4.41-.24,6.18-1.42S455.4,106.24,454.51,106.88Z"/><ellipse class="cls-18" cx="445.57" cy="107.65" rx="0.88" ry="0.78" transform="translate(128.64 438.83) rotate(-59.84)"/><ellipse class="cls-18" cx="449.03" cy="108.22" rx="1.1" ry="0.97" transform="matrix(0.5, -0.86, 0.86, 0.5, 129.86, 442.1)"/><ellipse class="cls-18" cx="446.14" cy="111.95" rx="0.88" ry="0.98" transform="translate(154.26 467.44) rotate(-64.7)"/><path class="cls-15" d="M488.89,269.39c-.65-.68-11.19-9.67-3.76-19.64s11.61-21.27,15.27-7,2.53,18.38.58,22.2S492.86,273.56,488.89,269.39Z"/><path class="cls-15" d="M534.22,250.26c-.82.42-12.14,7.55-20-1.48s-17.87-15.52-3.13-15.27,18.52,2.26,21.76,4.93S539.26,247.77,534.22,250.26Z"/><path class="cls-15" d="M468.12,226.16s-11.87-13.36-4.23-21.84,7.28-19.72,25.87-18,36.79,21.22,22.86,34.1S492,246.69,468.12,226.16Z"/><path class="cls-16" d="M498.24,232.6s-17.14-19.45-27.36-13.27S450.46,231.69,451,237.11s10.93,19.36,23.71,15.48S501.26,235.58,498.24,232.6Z"/><path class="cls-16" d="M529.57,195.77s-31.27,1.57-32.05,12.7-1.56,22.26,4.28,25,26.93,3,31.78-8.73S534.63,195.24,529.57,195.77Z"/><path class="cls-17" d="M504.24,221.11c.15,1.38-1.94,7.63-4.39,10.64l-.6-.11c0-1.72-1.05-4.46-4.68-8.76,0,0-5-4.22-2.39,3.8,1.23,3.77,2.52,5.69,3.55,6.66-3.43-.59-8.22-3.54-10.35-4.3-2.66-.95,1.68,5.23,4.41,9.21,1.21,1.76,3.17,1.3,5,.24-.33,2.25-.15,4.49,1.15,5.84,3.09,3.19,16.08-1.78,14.69-6.71-.65-2.32-3.59-3.84-6.52-4.8l.28-.13c5.12-2.51,3.39-6.33,3.15-9.71S504,219.38,504.24,221.11Z"/><ellipse class="cls-18" cx="497.79" cy="234.15" rx="1.3" ry="1.44" transform="translate(-13.07 438.22) rotate(-46.97)"/><ellipse class="cls-18" cx="501.56" cy="229.79" rx="1.63" ry="1.79" transform="translate(-8.68 439.59) rotate(-46.97)"/><ellipse class="cls-18" cx="504.62" cy="236.69" rx="1.65" ry="1.42" transform="translate(-52.4 216.93) rotate(-23.1)"/><path class="cls-19" d="M521,391s3.74-160.11-12.63-226.06S512,144,517,181s25.22,228.82,9.11,216.91S521,391,521,391Z"/><path class="cls-20" d="M533.68,394.05s-83-55.47-127.68,0,5.18,35.34,73.7,14.9C479.7,409,540.94,400.63,533.68,394.05Z"/><path class="cls-21" d="M506.28,404.34s48.74-25.41,86.91-21.2S682.42,416.74,653,418c0,0-32.8,13.36-79.88,4.78S506.28,404.34,506.28,404.34Z"/><path class="cls-15" d="M504.47,306c.09-1.24-.48-19.29,15.33-21.8s30.07-9.24,19.77,7.4-15.18,19.5-20.47,21.29S503.94,313.52,504.47,306Z"/><path class="cls-15" d="M561.5,329.64c-1.1-.37-17.57-4.08-15.82-19.75S545,279,557.42,292.75s13.77,19.08,14,24.55S568.18,331.92,561.5,329.64Z"/><path class="cls-15" d="M527.48,246.54s2.42-23.36,17-24.27,24.9-11.76,39.25,6.87,11.56,53.54-12.57,52.81S528.57,287.59,527.48,246.54Z"/><path class="cls-16" d="M547.28,280.16s3.64-33.87-11-37.46-29.23-7.17-33.88-1.58-8.89,28.1,5.75,36.18S547.06,285.72,547.28,280.16Z"/><path class="cls-16" d="M609,274.46s-28.36-27.18-39.54-17.5-22.38,19.37-19.91,27.24,20.32,27.48,35.55,21S613.85,278.6,609,274.46Z"/><path class="cls-17" d="M563.28,274.92c-1.16,1.43-8.87,5.36-13.82,5.93-.14-.23-.28-.46-.42-.66,1.61-1.63,3.32-5.13,4.26-12.46,0,0-.32-8.56-5.65,1.35-2.5,4.65-3.2,7.63-3.24,9.48-2.39-3.69-3.71-10.84-4.82-13.51-1.39-3.33-3.5,6.43-4.92,12.65-.62,2.76,1.5,4.12,4.05,4.79-2.41,1.8-4.36,4.06-4.52,6.51-.37,5.81,15.49,13.07,19,7.19,1.63-2.77.54-6.88-1.07-10.45l.36.12c6.78,2.36,8.9-2.81,11.89-6.17S564.75,273.13,563.28,274.92Z"/><ellipse class="cls-18" cx="545.41" cy="281.2" rx="1.89" ry="1.65" transform="translate(156.25 755.65) rotate(-77.91)"/><ellipse class="cls-18" cx="552.79" cy="280.58" rx="2.36" ry="2.07" transform="translate(162.69 762.37) rotate(-77.91)"/><ellipse class="cls-18" cx="548.88" cy="289.83" rx="1.89" ry="2.07" transform="translate(120.68 739.18) rotate(-74.22)"/><path class="cls-15" d="M505.54,205.65c-.13-.86-3.48-13.17,7.8-17.1s20.73-10.53,15.82,2.33-8.06,15.51-11.69,17.47S506.38,210.9,505.54,205.65Z"/><path class="cls-15" d="M551.54,214c-.87-.11-13.65-.36-14.9-11.36s-5.52-21.1,5.9-13.4,13.28,11.18,14.36,14.9S556.85,214.59,551.54,214Z"/><path class="cls-15" d="M512.91,161.65s-2-16.38,8.64-19,16.49-11.54,30.12-.76,17.23,35.15-.73,38S520.38,189.68,512.91,161.65Z"/><path class="cls-16" d="M533,182s-2.8-23.76-14.18-24.19-22.77-.85-25.3,3.63-2,20.53,10.12,24S533.74,185.81,533,182Z"/><path class="cls-16" d="M577.7,169.46s-25.37-14.71-32.07-6.51-13.4,16.42-10.29,21.48,19.47,16,29.67,9.44S582,171.63,577.7,169.46Z"/><path class="cls-17" d="M544,176.14c-.63,1.15-5.69,4.92-9.25,6l-.42-.4c.93-1.34,1.62-4,1.13-9.15,0,0-1.63-5.83-4,1.72-1.09,3.54-1.13,5.68-.85,7-2.37-2.2-4.51-6.93-5.76-8.61-1.57-2.08-1.55,4.9-1.59,9.37,0,2,1.78,2.63,3.77,2.73-1.49,1.57-2.56,3.39-2.28,5.1.66,4,13.57,6.81,15.18,2.29.76-2.13-.72-4.79-2.49-7l.29,0c5.39.67,6.12-3.17,7.79-5.89S544.78,174.71,544,176.14Z"/><ellipse class="cls-18" cx="531.79" cy="182.94" rx="1.25" ry="1.32" transform="matrix(0.99, -0.13, 0.13, 0.99, -19.61, 72.37)"/><ellipse class="cls-18" cx="537.14" cy="181.49" rx="1.56" ry="1.66" transform="translate(-19.37 73.07) rotate(-7.64)"/><ellipse class="cls-18" cx="535.76" cy="188.38" rx="1.32" ry="1.57" transform="translate(303.66 706.7) rotate(-85.25)"/><path class="cls-15" d="M477.66,153.65c-.26-.66-4.84-9.75,2.47-15.07s12.85-12.4,11.66-1.26-3,13.86-5.17,16.12S479.19,157.64,477.66,153.65Z"/><path class="cls-15" d="M511.83,151.21c-.64.09-9.76,2.4-12.62-6.08s-7.7-15.62,1.79-11.76,11.44,6.25,12.88,9S515.72,150.67,511.83,151.21Z"/><path class="cls-15" d="M475,117.35s-4.35-12.57,2.73-16.76,9.66-12.37,21.27-6.5,18.55,24.46,6.3,30.25S485.34,138.09,475,117.35Z"/><path class="cls-16" d="M492.93,129.51s-6.25-18.27-14.42-16.38-16.33,3.79-17.32,7.84,2.24,16.65,11.49,17.05S494.14,132.41,492.93,129.51Z"/><path class="cls-16" d="M522.46,110.85s-20.67-6.68-24,1.13-6.58,15.62-3.47,19,16.71,8.88,22.78,1.66S525.87,111.73,522.46,110.85Z"/><path class="cls-17" d="M499.69,122.75c-.24,1-3.17,5-5.51,6.56-.12-.09-.25-.16-.36-.23.42-1.25.44-3.48-.84-7.47,0,0-2.2-4.3-2.5,2.13a12.76,12.76,0,0,0,.64,5.68c-2.08-1.28-4.45-4.6-5.64-5.68-1.49-1.35-.22,4.18.55,7.73.35,1.57,1.73,1.73,3.17,1.42-.78,1.53-1.22,3.19-.71,4.48,1.2,3.07,10.86,2.74,11.2-1.15.16-1.84-1.37-3.66-3-5.08l.21,0c3.95-.52,3.78-3.71,4.47-6.19S500,121.46,499.69,122.75Z"/><ellipse class="cls-18" cx="492.24" cy="130.52" rx="0.92" ry="1.08" transform="matrix(0.99, -0.14, 0.14, 0.99, -13.56, 71.35)"/><ellipse class="cls-18" cx="495.79" cy="128.32" rx="1.15" ry="1.34" transform="translate(-13.21 71.83) rotate(-8.18)"/><ellipse class="cls-18" cx="496.04" cy="134.05" rx="1.15" ry="1.07" transform="translate(-14.68 190.56) rotate(-21.44)"/></g></svg>